<?xml version="1.0" standalone="no"?>
<!DOCTYPE svg PUBLIC "-//W3C//DTD SVG 20010904//EN"
 "http://www.w3.org/TR/2001/REC-SVG-20010904/DTD/svg10.dtd">
<svg version="1.0" xmlns="http://www.w3.org/2000/svg"
 width="668.000000pt" height="374.000000pt" viewBox="0 0 668.000000 374.000000"
 preserveAspectRatio="xMidYMid meet">

<g transform="translate(0.000000,374.000000) scale(0.100000,-0.100000)"
fill="#000000" stroke="none">
<path d="M2870 1875 l0 -235 25 0 25 0 0 110 0 110 90 0 c83 0 90 1 90 20 0
19 -7 20 -90 20 l-90 0 0 79 0 79 75 7 c41 4 88 5 105 3 26 -4 30 -1 30 19 0
23 -1 23 -130 23 l-130 0 0 -235z"/>
<path d="M3920 2010 c0 -55 -3 -100 -6 -100 -3 0 -17 9 -31 20 -38 30 -117 27
-165 -5 -67 -45 -88 -160 -41 -224 36 -48 71 -66 126 -66 38 0 61 6 85 23 32
23 32 23 32 3 0 -16 6 -21 25 -21 l25 0 0 235 0 235 -25 0 -25 0 0 -100z m-38
-129 c30 -27 33 -34 33 -90 0 -70 -19 -97 -76 -110 -96 -22 -165 55 -138 153
22 78 118 103 181 47z"/>
<path d="M4180 1875 c0 -228 1 -235 20 -235 19 0 20 7 21 173 0 94 3 179 7
188 7 16 48 -63 128 -248 23 -55 30 -63 54 -63 24 0 32 10 83 118 30 64 63
136 72 160 10 23 21 42 26 42 5 0 9 -83 9 -185 0 -178 1 -185 20 -185 19 0 20
7 20 235 l0 235 -29 0 c-25 0 -31 -7 -56 -62 -15 -35 -49 -108 -75 -163 -26
-55 -51 -111 -55 -123 -6 -22 -8 -23 -19 -5 -7 10 -32 61 -56 113 -113 251
-107 240 -140 240 l-30 0 0 -235z"/>
<path d="M3193 2083 c-19 -7 -16 -53 3 -60 18 -7 45 6 51 24 4 11 -23 44 -35
42 -4 0 -13 -3 -19 -6z"/>
<path d="M2550 1991 c0 -37 -2 -40 -32 -43 -47 -4 -51 -35 -6 -40 l33 -3 3
-116 c3 -133 12 -151 79 -153 32 -1 38 2 41 22 3 18 -1 22 -25 22 -47 0 -53
15 -53 127 l0 103 46 0 c38 0 45 3 42 18 -2 12 -15 18 -46 20 -42 3 -42 3 -42
43 0 32 -3 39 -20 39 -17 0 -20 -7 -20 -39z"/>
<path d="M2227 1925 c-48 -33 -67 -72 -67 -136 0 -38 6 -62 23 -86 24 -36 89
-73 128 -73 67 0 150 49 128 76 -8 10 -21 7 -60 -13 -44 -23 -53 -25 -87 -15
-42 13 -76 44 -87 80 l-6 22 130 0 131 0 0 33 c0 112 -136 177 -233 112z m127
-19 c34 -14 66 -50 66 -73 0 -10 -26 -13 -105 -13 -117 0 -125 5 -80 59 22 26
35 32 78 40 4 0 23 -5 41 -13z"/>
<path d="M3190 1795 c0 -148 1 -155 20 -155 19 0 20 7 20 155 0 148 -1 155
-20 155 -19 0 -20 -7 -20 -155z"/>
<path d="M3327 1943 c-4 -3 -7 -73 -7 -155 0 -148 0 -148 23 -148 22 0 23 3
19 61 -9 136 26 209 98 209 22 0 47 -8 61 -19 22 -18 24 -27 27 -135 3 -106 5
-116 23 -116 18 0 19 8 19 123 -1 80 -5 127 -13 137 -43 55 -134 68 -180 26
-27 -25 -37 -24 -37 6 0 18 -20 25 -33 11z"/>
<path d="M4779 1926 c-62 -42 -86 -133 -53 -202 33 -69 103 -104 179 -90 33 7
95 49 95 66 0 18 -34 19 -54 2 -59 -54 -167 -22 -190 56 l-7 22 137 0 137 0
-7 41 c-4 22 -14 51 -22 65 -44 66 -148 85 -215 40z m152 -29 c17 -11 39 -49
39 -67 0 -6 -45 -10 -105 -10 -84 0 -105 3 -105 14 0 22 48 74 73 79 28 6 76
-2 98 -16z"/>
<path d="M1887 1926 c-48 -18 -62 -29 -81 -70 -21 -44 -20 -111 1 -147 l17
-28 -57 -60 c-38 -39 -55 -65 -51 -75 10 -27 29 -18 88 44 57 60 58 60 95 50
103 -28 207 69 187 175 -16 86 -115 141 -199 111z m123 -55 c37 -36 46 -72 31
-122 -15 -48 -74 -84 -122 -74 -75 17 -118 99 -85 164 34 65 126 82 176 32z"/>
<path d="M1910 1826 c0 -30 9 -37 38 -29 18 4 20 8 11 20 -7 8 -21 19 -31 24
-15 8 -18 6 -18 -15z"/>
</g>
</svg>
